<?xml version="1.0" encoding="UTF-8" standalone="no"?>
<svg
   width="500"
   height="750"
   viewBox="0 0 500 750"
   version="1.1"
   xml:space="preserve"
   id="SVGRoot"
   xmlns:xlink="http://www.w3.org/1999/xlink"
   xmlns="http://www.w3.org/2000/svg"
   xmlns:svg="http://www.w3.org/2000/svg"
   xmlns:rdf="http://www.w3.org/1999/02/22-rdf-syntax-ns#"
   xmlns:cc="http://creativecommons.org/ns#"><defs
   id="defs1"><pattern
     xlink:href="#Cubes"
     preserveAspectRatio="none"
     id="pattern13"
     patternTransform="scale(0.6)"
     x="0"
     y="0" /><pattern
     patternUnits="userSpaceOnUse"
     width="142"
     height="123"
     patternTransform="scale(0.4)"
     id="Cubes"
     preserveAspectRatio="none"
     style="fill:#ff0000"
     x="0"
     y="0"><path
       id="path14"
       style="fill-opacity:0.6;stroke-width:2;stroke-miterlimit:10"
       d="M 0.00195313,0.001953 V 0.0039061 L 35.509766,20.503906 71.009766,0.0078124 106.50977,20.503906 142,0.0136718 V 0.001953 Z" /><path
       id="path16"
       style="fill-opacity:0.3;stroke-width:2;stroke-miterlimit:10"
       d="m 35.503902,61.5 0.0039,0.002 v 41 L 0,123.00195 V 81.998047 Z M 142.01171,0 l 0.004,0.002 v 41 l -35.5079,20.499953 V 20.498047 Z m -71.000002,0 0.0039,0.002 v 41 L 35.507806,61.501953 V 20.498047 Z m 35.492192,61.5 0.004,0.002 v 41 L 71,123.00195 V 81.998047 Z" /><path
       id="path18"
       style="fill-opacity:1;stroke-width:2;stroke-miterlimit:10"
       d="m 106.49609,61.5 -0.004,0.002 v 41 L 142,123.00195 V 81.998047 Z M 71.0039,0 71,0.002 v 41 l 35.50781,20.499953 V 20.498047 Z m -71,0 L 0,0.002 v 41 L 35.507806,61.501953 V 20.498047 Z m 35.492194,61.5 -0.0039,0.002 v 41 L 71,123.00195 V 81.998047 Z" /><path
       id="path20"
       style="fill-opacity:0.6;stroke-width:2;stroke-miterlimit:10"
       d="m 70.998047,41.001953 -35.5,20.496094 L 0,41.003906 v 40.998047 l 0.00195313,0.002 35.49999987,-20.496094 35.5,20.496094 L 106.50195,61.507812 142,82.001953 V 41.003906 l -0.002,-0.002 -35.5,20.496094 z" /><path
       id="path26"
       style="fill-opacity:0.6;stroke-width:2;stroke-miterlimit:10"
       d="M 35.505859,102.50195 0.00195313,123 v 0.002 H 142 v -0.008 l -35.49414,-20.49219 -35.500001,20.49609 z" /></pattern><linearGradient
     id="swatch3"><stop
       style="stop-color:#000000;stop-opacity:1;"
       offset="0"
       id="stop3" /></linearGradient></defs>
  
 <style
   type="text/css"
   id="style1">
g.prefab path {
  vector-effect:non-scaling-stroke;
  -inkscape-stroke:hairline;
  fill: none;
  fill-opacity: 1;
  stroke-opacity: 1;
  stroke: #00349c;
}
 </style>
 
<metadata
   id="metadata1"><rdf:RDF><cc:License
       rdf:about="http://creativecommons.org/licenses/by/4.0/"><cc:permits
         rdf:resource="http://creativecommons.org/ns#Reproduction" /><cc:permits
         rdf:resource="http://creativecommons.org/ns#Distribution" /><cc:requires
         rdf:resource="http://creativecommons.org/ns#Notice" /><cc:requires
         rdf:resource="http://creativecommons.org/ns#Attribution" /><cc:permits
         rdf:resource="http://creativecommons.org/ns#DerivativeWorks" /></cc:License><cc:Work
       rdf:about=""><cc:license
         rdf:resource="http://creativecommons.org/licenses/by/4.0/" /></cc:Work></rdf:RDF></metadata><rect
   style="fill:url(#pattern13);fill-opacity:1;stroke:none;stroke-width:1;stroke-dasharray:none;stroke-opacity:1"
   id="rect1"
   width="515.80292"
   height="764.87848"
   x="-11.799377"
   y="-8.7636709" /></svg>
